<!-- Generated by IcoMoon.io -->
<svg version="1.1" xmlns="http://www.w3.org/2000/svg" width="24" height="24" viewBox="0 0 24 24">
<title>twitter1</title>
<path d="M20.779 7.495c0.010 0.194 0.013 0.391 0.013 0.586 0 5.988-4.556 12.89-12.888 12.89-2.56 0-4.939-0.75-6.944-2.036 0.355 0.042 0.715 0.064 1.080 0.064 2.124 0 4.076-0.725 5.626-1.938-1.981-0.037-3.655-1.345-4.231-3.145 0.276 0.052 0.56 0.079 0.852 0.079 0.414 0 0.815-0.054 1.194-0.157-2.072-0.418-3.634-2.248-3.634-4.444 0-0.019 0-0.037 0-0.056 0.611 0.34 1.31 0.544 2.052 0.568-1.216-0.814-2.016-2.198-2.016-3.772 0-0.829 0.223-1.608 0.614-2.278 2.233 2.742 5.573 4.544 9.337 4.734-0.077-0.332-0.116-0.677-0.116-1.033 0-2.501 2.027-4.528 4.529-4.528 1.303 0 2.48 0.548 3.307 1.429 1.031-0.204 2-0.581 2.876-1.099-0.338 1.057-1.057 1.945-1.992 2.506 0.917-0.11 1.788-0.352 2.602-0.713-0.607 0.91-1.375 1.706-2.261 2.344z"></path>
</svg>
